<svg xmlns="http://www.w3.org/2000/svg" width="108" height="18" viewBox="0 0 108 18">
  <metadata><?xpacket begin="﻿" id="W5M0MpCehiHzreSzNTczkc9d"?>
<x:xmpmeta xmlns:x="adobe:ns:meta/" x:xmptk="Adobe XMP Core 5.6-c142 79.160924, 2017/07/13-01:06:39        ">
   <rdf:RDF xmlns:rdf="http://www.w3.org/1999/02/22-rdf-syntax-ns#">
      <rdf:Description rdf:about=""/>
   </rdf:RDF>
</x:xmpmeta>
                                                                                                    
                                                                                                    
                                                                                                    
                                                                                                    
                                                                                                    
                                                                                                    
                                                                                                    
                                                                                                    
                                                                                                    
                                                                                                    
                                                                                                    
                                                                                                    
                                                                                                    
                                                                                                    
                                                                                                    
                                                                                                    
                                                                                                    
                                                                                                    
                                                                                                    
                                                                                                    
                           
<?xpacket end="w"?></metadata>
<defs>
    <style>
      .cls-1 {
        fill: #fff;
        fill-rule: evenodd;
      }
    </style>
  </defs>
  <path id="ТЕХНОМАРТ" class="cls-1" d="M553.421,381.306H557.2v15.749h2.128V381.306h3.783v-1.75h-9.694v1.75Zm13.827,7.5h5.2v-1.749h-5.2v-5.75h5.911v-1.75H565.12v17.5h8.039v-1.75h-5.911v-6.5Zm12.713-2.249-2.6-7h-2.128l3.192,8.5-3.547,9h2.128l2.955-7.5,2.956,7.5h2.128l-3.547-9,3.192-8.5h-2.128Zm14.241-7v7.75h-4.965v-7.75h-2.128v17.5h2.128v-8H594.2v8h2.128v-17.5H594.2Zm7.673,0.175a3.781,3.781,0,0,0-1.6,1.45,7.925,7.925,0,0,0-1,2.763,27.908,27.908,0,0,0,0,8.724,7.919,7.919,0,0,0,1,2.762,3.768,3.768,0,0,0,1.6,1.45,5.6,5.6,0,0,0,4.279,0,3.768,3.768,0,0,0,1.6-1.45,7.959,7.959,0,0,0,1-2.762,27.908,27.908,0,0,0,0-8.724,7.965,7.965,0,0,0-1-2.763,3.781,3.781,0,0,0-1.6-1.45A5.6,5.6,0,0,0,601.875,379.731ZM602.9,395.48a2.606,2.606,0,0,1-.946-1.175,9.117,9.117,0,0,1-.65-2.3,27.725,27.725,0,0,1,0-7.4,9.138,9.138,0,0,1,.65-2.3,2.617,2.617,0,0,1,.946-1.175,2.063,2.063,0,0,1,2.223,0,2.623,2.623,0,0,1,.945,1.175,9.134,9.134,0,0,1,.651,2.3,27.725,27.725,0,0,1,0,7.4,9.113,9.113,0,0,1-.651,2.3,2.611,2.611,0,0,1-.945,1.175A2.063,2.063,0,0,1,602.9,395.48Zm16.866-.675,3.428-10.749h0.118l0.71,13h2.128l-0.946-17.5h-2.6l-3.854,12h-0.095l-3.854-12h-2.6l-0.945,17.5h2.128l0.709-13h0.118l3.429,10.749h2.128Zm16.252-2.25,1.064,4.5h2.128l-4.019-17.5H632.12l-4.02,17.5h2.128l1.065-4.5h4.728Zm-0.354-1.749h-4.02l1.963-8.75H633.7Zm7.783-.625v-9.25h1.655a4.022,4.022,0,0,1,1.384.213,2.018,2.018,0,0,1,.957.737,3.627,3.627,0,0,1,.556,1.425,14.389,14.389,0,0,1,0,4.5,3.627,3.627,0,0,1-.556,1.425,2.018,2.018,0,0,1-.957.737,4.022,4.022,0,0,1-1.384.213H643.45Zm0,1.5a10.727,10.727,0,0,0,1.135.174,11.192,11.192,0,0,0,1.23.076,5.718,5.718,0,0,0,2-.313,3.053,3.053,0,0,0,1.395-1.05,5.056,5.056,0,0,0,.827-1.962,14.4,14.4,0,0,0,.272-3.05,13.133,13.133,0,0,0-.284-2.975,4.547,4.547,0,0,0-.9-1.925,3.386,3.386,0,0,0-1.608-1.037,8.117,8.117,0,0,0-2.412-.313,16.14,16.14,0,0,0-1.974.113,10.653,10.653,0,0,0-1.809.387v17.249h2.128v-5.374Zm8.249-10.375h3.784v15.749h2.127V381.306h3.784v-1.75h-9.7v1.75Z" transform="translate(-553.406 -379.312)"/>
</svg>
